<svg xmlns="http://www.w3.org/2000/svg" xmlns:xlink="http://www.w3.org/1999/xlink" viewBox="0 0 417.58 95.52"><defs><radialGradient id="radial-gradient" cx="50.35" cy="57.03" r="193.7" gradientUnits="userSpaceOnUse"><stop offset="0" stop-color="#f8b133"/><stop offset="0.47" stop-color="#f49a0e"/><stop offset="0.72" stop-color="#f29100"/></radialGradient></defs><g id="Layer_2" data-name="Layer 2"><g id="Layer_1-2" data-name="Layer 1"><path d="M34.4,0H62.91L95,95.52H41.17V75.74H61.84L48.48,32.79,26.38,95.52H0ZM257.52,0h-65.4a10.87,10.87,0,0,0-10.87,10.87V47.23A10.87,10.87,0,0,0,192.12,58.1h38.67V75.56h-41l-7.84,20h64.69a10.86,10.86,0,0,0,10.87-10.87V48.3a10.86,10.86,0,0,0-10.87-10.87h-37.6V20.14H250.4ZM163.6,0a13.55,13.55,0,0,1,13.55,13.54V41.88A13.55,13.55,0,0,1,163.6,55.43H127.07V95.52H100.51V0ZM149.88,20.5h-23V38.67h23Z" fill="url(#radial-gradient)"/><path d="M312.81,64.38v.09A11.74,11.74,0,0,1,321,76.06c0,6-2.07,10.69-6.29,14.25a23.51,23.51,0,0,1-15.49,5.21,20,20,0,0,1-11.84-3.39c-3.15-2.32-4.72-5.72-4.72-10.27a17.83,17.83,0,0,1,12.75-17.39v-.09c-4.55-2-6.79-5.3-6.79-10a15.71,15.71,0,0,1,5.8-12.83,21.26,21.26,0,0,1,14.08-4.89,17.77,17.77,0,0,1,10.68,3.23,10.66,10.66,0,0,1,4.47,9.19C323.66,56.27,319.52,61.82,312.81,64.38Zm-9.19,3.07A13,13,0,0,0,294.34,71a12.05,12.05,0,0,0-3.72,9.11c0,5.38,4.06,8.78,9.6,8.78a13.09,13.09,0,0,0,9.28-3.64,12.2,12.2,0,0,0,3.81-9.11C313.31,70.6,309.25,67.45,303.62,67.45ZM307.51,43a10.8,10.8,0,0,0-11.18,11c0,4.72,3.4,7.37,8.28,7.37,6.38,0,11.18-4.55,11.18-10.93C315.79,45.75,312.4,43,307.51,43Z" fill="#f29100"/><path d="M351.57,75.15a13.91,13.91,0,0,1-10.43,4.31c-6.22,0-10.69-4.06-10.69-10.27a14.37,14.37,0,0,1,4.14-10.35,14,14,0,0,1,10.52-4.31c6.21,0,10.69,4.06,10.69,10.27A14.24,14.24,0,0,1,351.57,75.15Zm-7.29-15.73c-4.63,0-7.95,4.3-7.95,9,0,3.56,2.07,6,5.63,6a7.05,7.05,0,0,0,5.72-2.74,10.19,10.19,0,0,0,2.24-6.46C349.92,61.82,347.84,59.42,344.28,59.42Z" fill="#f29100"/><path d="M411.53,65.05c-4.06,3.39-9.19,5.13-15.49,5.13h-7.62l-3.89,24.43h-7.87l9.11-57.14h15.41c4.72,0,8.69,1.08,11.76,3.23s4.64,5.38,4.64,9.94C417.58,56.77,415.59,61.57,411.53,65.05Zm-12-20.87h-7l-3,19.29h7c7.53,0,12.92-4.14,12.92-11.51C409.38,46.74,406.06,44.18,399.52,44.18Z" fill="#f29100"/></g></g></svg>